<svg width="2000" height="1400" xmlns="http://www.w3.org/2000/svg"><defs><linearGradient id="a" gradientTransform="rotate(90)"><stop offset="5%" stop-color="#000220"/><stop offset="95%" stop-color="#3f4157"/></linearGradient><linearGradient id="b" gradientTransform="rotate(90)"><stop offset="5%" stop-color="#000225"/><stop offset="95%" stop-color="#3f415b"/></linearGradient><linearGradient id="c" gradientTransform="rotate(90)"><stop offset="5%" stop-color="#000329"/><stop offset="95%" stop-color="#3f425e"/></linearGradient><linearGradient id="d" gradientTransform="rotate(90)"><stop offset="5%" stop-color="#00032d"/><stop offset="95%" stop-color="#3f4261"/></linearGradient><linearGradient id="e" gradientTransform="rotate(90)"><stop offset="5%" stop-color="#020232"/><stop offset="95%" stop-color="#414165"/></linearGradient><linearGradient id="f" gradientTransform="rotate(90)"><stop offset="5%" stop-color="#040237"/><stop offset="95%" stop-color="#424169"/></linearGradient><linearGradient id="g" gradientTransform="rotate(90)"><stop offset="5%" stop-color="#06013c"/><stop offset="95%" stop-color="#44406c"/></linearGradient><linearGradient id="h" gradientTransform="rotate(90)"><stop offset="5%" stop-color="#080041"/><stop offset="95%" stop-color="#453f70"/></linearGradient></defs><path fill="#00011c" d="M0 0h2000v1400H0z"/><path d="M0 155c44.372-6.532 88.745-13.064 132-15 43.255-1.936 85.394.723 129 7 43.606 6.277 88.681 16.17 135 22 46.319 5.83 93.883 7.597 139 1 45.117-6.597 87.789-21.556 133-21 45.211.556 92.962 16.629 137 18 44.038 1.371 84.364-11.958 128-18 43.636-6.042 90.582-4.795 135-5 44.418-.205 86.308-1.862 130-1 43.692.862 89.187 4.244 135 7 45.813 2.756 91.945 4.887 135 10 43.055 5.113 83.034 13.207 129 8 45.966-5.207 97.919-23.715 140-24 42.081-.285 74.291 17.654 123 23s113.917-1.901 140-6 13.042-5.05 40-6l-40 1245H0Z" fill="url(#a)"/><path d="M0 311c43.844-1.667 87.689-3.334 131-3 43.311.334 86.09 2.668 129 6s85.952 7.663 133 3 98.103-18.32 144-19c45.897-.68 86.635 11.617 131 16 44.365 4.383 92.357.852 137-2s85.935-5.027 129-2 87.901 11.254 131 11c43.099-.254 84.46-8.991 130-9 45.54-.009 95.256 8.71 142 12 46.744 3.29 90.514 1.153 132 0 41.486-1.153 80.688-1.323 124 1s90.733 7.138 134-1c43.267-8.138 82.38-29.23 134-29 51.62.23 115.749 21.78 141 28 25.251 6.22 11.626-2.89 38-12l-40 1089H0Z" fill="url(#b)"/><path d="M0 466c45.414-8.738 90.828-17.475 133-13 42.172 4.475 81.103 22.164 127 26 45.897 3.836 98.76-6.18 145-12 46.24-5.82 85.858-7.443 129-10 43.142-2.557 89.81-6.048 133-3s82.904 12.634 128 14c45.096 1.366 95.573-5.487 142-9 46.427-3.513 88.804-3.686 133-5s90.21-3.769 133 3c42.79 6.769 82.355 22.762 127 22 44.645-.762 94.37-18.279 140-23 45.63-4.721 87.166 3.354 132 10s92.966 11.864 137 7c44.034-4.864 83.97-19.81 132-21 48.03-1.19 104.151 11.374 127 16 22.849 4.626 12.424 1.313 42-2l-40 934H0Z" fill="url(#c)"/><path d="M0 622c42.521-3.815 85.043-7.63 131-3 45.957 4.63 95.35 17.707 140 16 44.65-1.707 84.556-18.2 127-21 42.444-2.8 87.427 8.09 131 9 43.573.91 85.736-8.16 132-6 46.264 2.16 96.63 15.547 141 15 44.37-.547 82.747-15.028 127-20 44.253-4.972 94.384-.436 140 4s86.719 8.77 130 10c43.281 1.23 88.742-.647 132 1 43.258 1.647 84.313 6.818 130 5 45.687-1.818 96.007-10.625 143-11 46.993-.375 90.658 7.683 132 7 41.342-.683 80.361-10.107 131-13 50.639-2.893 112.897.745 137 3 24.103 2.255 10.052 3.128 36 4l-40 778H0Z" fill="url(#d)"/><path d="M0 777c47.57-2.925 95.14-5.85 138-3 42.86 2.85 81.011 11.477 125 16 43.989 4.523 93.815 4.943 138-1s82.728-18.25 127-22c44.272-3.75 94.274 1.055 139 4 44.726 2.945 84.176 4.03 129 6 44.824 1.97 95.023 4.823 140 6 44.977 1.177 84.732.677 128-5s90.047-16.533 135-14c44.953 2.533 88.079 18.453 131 24 42.921 5.547 85.638.722 131-6 45.362-6.722 93.368-15.34 139-15 45.632.34 88.891 9.637 132 13 43.109 3.363 86.068.79 137-3s109.838-8.797 133-9c23.162-.203 10.581 4.399 38 9l-40 623H0Z" fill="url(#e)"/><path d="M0 933c42.911-.66 85.822-1.32 129-3s86.621-4.38 132-6c45.379-1.62 92.692-2.16 138 4 45.308 6.16 88.612 19.022 134 18 45.388-1.022 92.86-15.926 138-18s87.948 8.683 132 10c44.052 1.317 89.347-6.805 134-7 44.653-.195 88.663 7.538 132 7 43.337-.538 86.002-9.348 128-9 41.998.348 83.328 9.852 130 16s98.686 8.94 144 2c45.314-6.94 83.93-23.61 126-25 42.07-1.39 87.596 12.504 133 13 45.404.496 90.686-12.405 142-17 51.314-4.595 108.661-.884 131 3s9.67 7.942 37 12l-40 467H0Z" fill="url(#f)"/><path d="M0 1088c45.899 4.242 91.798 8.484 137 7s89.707-8.693 133-13c43.293-4.307 85.375-5.711 128-2 42.625 3.711 85.793 12.538 132 12 46.207-.538 95.453-10.441 141-15 45.547-4.559 87.395-3.773 129-1 41.605 2.773 82.965 7.533 128 9 45.035 1.467 93.743-.36 141-2 47.257-1.64 93.064-3.09 135-7 41.936-3.91 80.002-10.278 124-3 43.998 7.278 93.928 28.204 139 29 45.072.796 85.284-18.538 130-26 44.716-7.462 93.934-3.052 136-2s76.98-1.255 128 4c51.02 5.255 118.149 18.073 144 21 25.851 2.927 10.426-4.036 35-11l-40 312H0Z" fill="url(#g)"/><path d="M0 1244c46.718-4.349 93.435-8.698 137-12 43.565-3.302 83.976-5.558 126 1s85.66 21.931 131 24c45.34 2.069 92.385-9.166 140-13 47.615-3.834 95.8-.267 138-3s78.415-11.766 123-9c44.585 2.766 97.539 17.33 144 21 46.461 3.67 86.43-3.557 129-7 42.57-3.443 87.743-3.105 132-4 44.257-.895 87.6-3.025 133-5 45.4-1.975 92.86-3.794 136 2 43.14 5.794 81.96 19.202 127 18 45.04-1.202 96.3-17.013 141-20 44.7-2.987 82.842 6.85 132 6 49.158-.85 109.33-12.386 133-14 23.67-1.614 10.835 6.693 38 15l-40 156H0Z" fill="url(#h)"/></svg>