<svg width="2000" height="1400" xmlns="http://www.w3.org/2000/svg"><defs><linearGradient id="a" gradientTransform="rotate(90)"><stop offset="5%" stop-color="#4437fa"/><stop offset="95%" stop-color="#7269fb"/></linearGradient><linearGradient id="b" gradientTransform="rotate(90)"><stop offset="5%" stop-color="#6b6cf5"/><stop offset="95%" stop-color="#9090f7"/></linearGradient><linearGradient id="c" gradientTransform="rotate(90)"><stop offset="5%" stop-color="#959bf5"/><stop offset="95%" stop-color="#afb4f7"/></linearGradient><linearGradient id="d" gradientTransform="rotate(90)"><stop offset="5%" stop-color="#c2c4fa"/><stop offset="95%" stop-color="#d1d2fb"/></linearGradient><linearGradient id="e" gradientTransform="rotate(90)"><stop offset="5%" stop-color="#efedff"/><stop offset="95%" stop-color="#f3f1ff"/></linearGradient></defs><path fill="#1d03ff" d="M0 0h2000v1400H0z"/><path d="M0 233c23.082-5.972 46.165-11.944 78-27s72.423-39.196 108-30c35.577 9.196 66.142 51.729 96 57 29.858 5.271 59.008-26.718 88-15 28.992 11.718 57.825 67.144 85 82 27.175 14.856 52.692-10.857 82-15 29.308-4.143 62.408 13.283 93 15 30.592 1.717 58.676-12.275 90-47 31.324-34.725 65.887-90.183 100-74 34.113 16.183 67.774 104.008 97 122 29.226 17.992 54.015-33.847 85-56s68.166-14.62 95 2c26.834 16.62 43.323 42.324 73 41 29.677-1.324 72.543-29.676 109-31 36.457-1.324 66.505 24.38 92 12 25.495-12.38 46.436-62.846 73-73 26.564-10.154 58.752 20.004 90 38 31.248 17.996 61.555 23.83 91 27 29.445 3.17 58.026 3.674 91 10 32.974 6.326 70.339 18.472 103 3 32.661-15.472 60.617-58.564 90-70 29.383-11.436 60.191 8.782 131 29l-40 1167H0Z" fill="url(#a)"/><path d="M0 466c28.504-45.09 57.008-90.18 86-68 28.992 22.18 58.473 111.63 89 134 30.527 22.37 62.102-22.34 91-44 28.898-21.66 55.12-20.268 86-30 30.88-9.732 66.416-30.586 96-35 29.584-4.414 53.217 7.611 88 29s80.715 52.14 113 63 50.921 1.827 75-2 53.6-2.45 87-15 70.68-39.03 100-42c29.32-2.97 50.678 17.572 77 7 26.322-10.572 57.606-52.257 90-58 32.394-5.743 65.896 24.455 97 34 31.104 9.545 59.809-1.564 92-6s67.869-2.2 97 14 51.717 46.364 84 59c32.283 12.636 74.264 7.746 104-10 29.736-17.746 47.228-48.346 73-37 25.772 11.346 59.826 64.64 92 62 32.174-2.64 62.47-61.21 97-65 34.53-3.79 73.294 47.203 105 58 31.706 10.797 56.353-18.602 121-48l-40 934H0Z" fill="url(#b)"/><path d="M0 700c22.855 11.692 45.71 23.384 80 27 34.29 3.616 80.018-.844 110 3s44.22 15.992 74 16c29.78.008 75.103-12.122 110-10 34.897 2.122 59.366 18.498 85 32 25.634 13.502 52.43 24.13 86 1s73.91-80.019 104-92c30.09-11.981 49.928 20.946 80 40 30.072 19.054 70.377 24.236 100 26 29.623 1.764 48.562.109 79 13 30.438 12.891 72.373 40.328 104 13 31.627-27.328 52.945-109.423 76-129 23.055-19.577 47.848 23.362 81 30 33.152 6.638 74.663-23.024 107-25 32.337-1.976 55.499 23.736 86 21 30.501-2.736 68.342-33.92 99-32 30.658 1.92 54.133 36.945 84 42 29.867 5.055 66.127-19.861 94-26 27.873-6.139 47.358 6.499 79 14 31.642 7.501 75.442 9.866 105 20 29.558 10.134 44.874 28.038 72 32 27.126 3.962 66.063-6.02 145-16l-40 700H0Z" fill="url(#c)"/><path d="M0 933c29.13-16.487 58.26-32.973 87-26 28.74 6.973 57.09 37.406 85 23 27.91-14.406 55.379-73.652 87-61 31.621 12.652 67.395 97.203 105 122 37.605 24.797 77.042-10.16 103-36s38.436-42.564 66-64 70.212-47.583 108-17 70.716 117.895 99 125c28.284 7.105 51.925-65.998 83-73 31.075-7.002 69.583 52.099 98 61 28.417 8.901 46.743-32.396 76-43 29.257-10.604 69.444 9.486 100 1 30.556-8.486 51.482-45.55 82-58 30.518-12.45 70.63-.29 100 25 29.37 25.29 48 63.707 76 58 28-5.707 65.373-55.538 98-80 32.627-24.462 60.508-23.556 87-19 26.492 4.556 51.596 12.762 84 35s72.108 58.507 107 64c34.892 5.493 64.97-19.79 92-44s51.008-47.346 80-46c28.992 1.346 62.996 27.173 137 53l-40 467H0Z" fill="url(#d)"/><path d="M0 1166c25.15-25.323 50.298-50.646 83-42s72.957 51.262 102 66c29.043 14.738 46.875 1.599 75-23s66.542-60.657 104-55c37.458 5.657 73.958 53.031 102 60 28.042 6.969 47.625-26.467 73-33 25.375-6.533 56.54 13.836 92 27s75.213 19.124 105 36c29.787 16.876 49.607 44.668 74 30s53.359-71.796 87-97c33.641-25.204 71.957-18.485 105-24 33.043-5.515 60.813-23.266 92-2 31.187 21.266 65.792 81.547 97 93 31.208 11.453 59.02-25.923 84-31 24.98-5.077 47.132 22.144 77 37 29.868 14.856 67.455 17.348 101-6s63.05-72.536 92-68c28.95 4.536 57.346 62.796 91 88s72.567 17.354 101-11c28.433-28.354 46.386-77.21 77-72 30.614 5.21 73.89 64.489 107 78 33.11 13.511 56.055-18.744 119-51l-40 234H0Z" fill="url(#e)"/></svg>