<svg width="2000" height="1400" xmlns="http://www.w3.org/2000/svg"><path fill="#e8e5ff" d="M0 0h2000v1400H0z"/><path d="M0 233h0c30.985 15.686 61.97 31.371 93 47 31.03 15.629 62.103 31.201 93 19s61.617-52.176 88-68c26.383-15.824 48.428-7.499 78 3 29.572 10.499 66.67 23.172 101 10s65.895-52.187 92-60c26.105-7.813 46.751 15.577 79 16 32.249.423 76.1-22.122 107-19 30.9 3.122 48.85 31.912 76 57s63.499 46.475 95 43c31.501-3.475 58.154-31.81 88-31 29.846.81 62.886 30.765 96 21s66.3-59.251 98-77c31.7-17.749 61.912-3.76 89-7s51.053-23.71 79-9c27.947 14.71 59.875 64.602 91 74 31.125 9.398 61.448-21.699 92-44s61.333-35.807 93-24c31.667 11.807 64.22 48.928 97 57 32.78 8.072 65.787-12.904 95-29 29.213-16.096 54.632-27.313 84-23 29.368 4.313 62.684 24.157 136 44" fill="none" stroke="#422cff" stroke-width="18" stroke-linecap="round"/><path d="M0 466h0c23.594-19.647 47.187-39.294 81-37 33.813 2.294 77.844 26.529 110 38 32.156 11.471 52.437 10.179 78-2 25.563-12.179 56.407-35.244 86-19 29.593 16.244 57.936 71.799 93 90 35.064 18.201 76.851-.95 110-32s57.66-73.996 85-97c27.34-23.004 57.51-26.065 86-4 28.49 22.065 55.3 69.255 84 81 28.7 11.745 59.287-11.956 89-22s58.551-6.43 93-10c34.449-3.57 74.508-14.32 108-6 33.492 8.32 60.417 35.712 83 28 22.583-7.712 40.826-50.528 73-60 32.174-9.472 78.28 14.4 115 22s64.055-1.072 92 21c27.945 22.072 56.5 74.888 81 75 24.5.112 44.943-52.478 76-52 31.057.478 72.727 54.025 104 52 31.273-2.025 52.15-59.622 81-67s65.671 35.463 99 44c33.329 8.537 63.164-17.232 133-43" fill="none" stroke="#cec9ff" stroke-width="18" stroke-linecap="round"/><path d="M0 700h0c24.746 24.571 49.491 49.142 79 30 29.509-19.142 63.781-81.997 96-85s62.383 53.848 90 61c27.617 7.152 52.685-35.393 85-46s71.875 10.723 102 31 50.815 39.5 85 28 81.864-53.722 110-60c28.136-6.278 36.728 23.39 67 14s82.223-57.834 115-43c32.777 14.834 46.381 92.947 71 126s60.253 21.045 91-7 56.606-72.129 92-79c35.394-6.871 80.323 23.47 110 51 29.677 27.53 44.101 52.25 72 47s69.272-40.469 105-71c35.728-30.531 65.81-56.374 93-64 27.19-7.626 51.486 2.966 78 17 26.514 14.034 55.245 31.512 86 20 30.755-11.512 63.532-52.014 95-36 31.468 16.014 61.626 88.542 91 106 29.374 17.458 57.964-20.155 89-36 31.036-15.845 64.518-9.923 138-4" fill="none" stroke="#7161ff" stroke-width="18" stroke-linecap="round"/><path d="M0 933h0c29.842 37.288 59.685 74.577 89 67 29.315-7.577 58.103-60.018 90-74s66.903 10.497 98 13c31.097 2.503 58.284-16.968 90-30s67.96-19.624 98-27c30.04-7.376 53.874-15.536 82-15 28.126.536 60.544 9.769 93 42s64.951 87.462 92 77c27.049-10.462 48.652-86.617 78-92 29.348-5.383 66.442 60.005 100 93 33.558 32.995 63.579 33.598 90 3s49.242-92.398 80-100c30.758-7.602 69.452 38.995 106 67 36.548 28.005 70.948 37.419 97 15 26.052-22.419 43.756-76.67 71-77 27.244-.33 64.028 53.261 96 63 31.972 9.739 59.13-24.374 91-44 31.87-19.626 68.448-24.764 101-1 32.552 23.764 61.076 76.432 86 78 24.924 1.568 46.249-47.962 76-80 29.751-32.038 67.929-46.582 102-40 34.071 6.582 64.036 34.291 134 62" fill="none" stroke="#7f70ff" stroke-width="18" stroke-linecap="round"/><path d="M0 1166h0c33.3-11.344 66.598-22.688 99-7 32.402 15.688 63.905 58.408 89 42s43.78-91.944 76-97c32.22-5.056 77.976 60.368 109 74 31.024 13.632 47.317-24.528 78-25 30.683-.472 75.757 36.743 107 35 31.243-1.743 48.655-42.446 74-54 25.345-11.554 58.621 6.039 88 13 29.379 6.961 54.859 3.29 87 10s70.943 23.802 100 40c29.057 16.198 48.368 31.5 79 28 30.632-3.5 72.585-25.805 110-25 37.415.805 70.294 24.721 98 22 27.706-2.721 50.24-32.079 79-58 28.76-25.921 63.745-48.405 95-44 31.255 4.405 58.78 35.7 91 57 32.22 21.3 69.134 32.607 98 33 28.866.393 49.682-10.127 75-16 25.318-5.873 55.137-7.1 86 0s62.77 22.527 98 14c35.23-8.527 73.78-41.008 105-52 31.22-10.992 55.11-.496 119 10" fill="none" stroke="#b1a9ff" stroke-width="18" stroke-linecap="round"/></svg>